<svg width="38" height="34" viewBox="0 0 38 34" fill="none" xmlns="http://www.w3.org/2000/svg">
<path d="M5.41992 28.1973L15 0.40625H10.4473L0.867188 28.1973H5.41992ZM20.6074 16.3496V16.7188C20.6074 18.1016 20.7832 19.3848 21.1348 20.5684C21.498 21.7402 22.0137 22.7539 22.6816 23.6094C23.3496 24.4648 24.1523 25.1387 25.0898 25.6309C26.0391 26.1113 27.1055 26.3516 28.2891 26.3516C28.8867 26.3516 29.4434 26.2871 29.959 26.1582C30.4863 26.0293 30.9668 25.8477 31.4004 25.6133C31.6934 25.4492 31.9688 25.2617 32.2266 25.0508C32.4844 24.8398 32.7305 24.6055 32.9648 24.3477V25.4375C32.9648 26.082 32.8711 26.6621 32.6836 27.1777C32.5078 27.6934 32.25 28.127 31.9102 28.4785C31.5352 28.8652 31.0664 29.1582 30.5039 29.3574C29.9531 29.5566 29.3203 29.6562 28.6055 29.6562C28.1602 29.6562 27.7266 29.6094 27.3047 29.5156C26.8945 29.4336 26.4961 29.3047 26.1094 29.1289C25.7109 28.9531 25.3301 28.7246 24.9668 28.4434C24.6035 28.1738 24.2637 27.8574 23.9473 27.4941L21.75 30.4648C22.1602 30.9922 22.6523 31.4434 23.2266 31.8184C23.8008 32.2051 24.4102 32.5215 25.0547 32.7676C25.6992 33.0137 26.3496 33.1953 27.0059 33.3125C27.6621 33.4297 28.2773 33.4883 28.8516 33.4883C30.1875 33.4883 31.4062 33.3066 32.5078 32.9434C33.6211 32.5918 34.5762 32.0703 35.373 31.3789C36.1582 30.6875 36.7676 29.8379 37.2012 28.8301C37.6465 27.8223 37.8691 26.6738 37.8691 25.3848V6.98047H33.4219L33.2285 8.79102C32.9941 8.49805 32.7363 8.23438 32.4551 8C32.1738 7.75391 31.8691 7.54297 31.541 7.36719C31.1074 7.12109 30.6211 6.93945 30.082 6.82227C29.5547 6.69336 28.9688 6.62891 28.3242 6.62891C27.1289 6.62891 26.0566 6.86328 25.1074 7.33203C24.1582 7.80078 23.3496 8.46289 22.6816 9.31836C22.0137 10.1738 21.498 11.1992 21.1348 12.3945C20.7832 13.5898 20.6074 14.9082 20.6074 16.3496ZM25.5117 16.7188V16.3496C25.5117 15.5527 25.5938 14.8086 25.7578 14.1172C25.9219 13.4141 26.1738 12.7988 26.5137 12.2715C26.8418 11.7559 27.2578 11.3516 27.7617 11.0586C28.2656 10.7539 28.8633 10.6016 29.5547 10.6016C29.9297 10.6016 30.2754 10.6367 30.5918 10.707C30.9199 10.7773 31.2188 10.877 31.4883 11.0059C31.8047 11.1582 32.0859 11.3574 32.332 11.6035C32.5781 11.8496 32.7891 12.1367 32.9648 12.4648V20.5156C32.8008 20.8086 32.6074 21.0723 32.3848 21.3066C32.1621 21.541 31.9043 21.7402 31.6113 21.9043C31.3301 22.0566 31.0137 22.1738 30.6621 22.2559C30.3223 22.3379 29.9414 22.3789 29.5195 22.3789C28.8281 22.3789 28.2305 22.2324 27.7266 21.9395C27.2227 21.6465 26.8066 21.2422 26.4785 20.7266C26.1504 20.2227 25.9043 19.6309 25.7402 18.9512C25.5879 18.2598 25.5117 17.5156 25.5117 16.7188Z" fill="white"/>
</svg>
