<svg width="25" height="25" viewBox="0 0 25 25" fill="none" xmlns="http://www.w3.org/2000/svg">
<g clip-path="url(#clip0_46:11)">
<path d="M12.4999 3.09663e-07C9.53128 -0.000660157 6.65935 1.05521 4.39814 2.97861C2.13692 4.90202 0.634049 7.56739 0.158516 10.4977C-0.317017 13.4279 0.265836 16.4318 1.80275 18.9715C3.33966 21.5113 5.7303 23.4212 8.54675 24.3594C9.17175 24.4688 9.40613 24.0938 9.40613 23.7656C9.40613 23.4375 9.40613 22.4844 9.40613 21.4375C6.28113 22.0156 5.453 20.6719 5.203 19.9687C4.92553 19.285 4.48579 18.679 3.92175 18.2031C3.48425 17.9687 2.85925 17.3906 3.92175 17.375C4.32152 17.4183 4.70496 17.5573 5.03953 17.7804C5.3741 18.0034 5.64994 18.3039 5.84363 18.6562C6.0146 18.9634 6.2445 19.2337 6.52014 19.4519C6.79578 19.67 7.11175 19.8316 7.44994 19.9274C7.78814 20.0232 8.14191 20.0513 8.491 20.0101C8.84008 19.969 9.17761 19.8593 9.48425 19.6875C9.53793 19.0519 9.8212 18.4576 10.2811 18.0156C7.49988 17.7031 4.59363 16.625 4.59363 11.8437C4.57551 10.6013 5.034 9.39917 5.87488 8.48437C5.49194 7.40477 5.53666 6.21955 5.99988 5.17188C5.99988 5.17188 7.04675 4.84375 9.43738 6.45313C11.4827 5.89044 13.642 5.89044 15.6874 6.45313C18.078 4.89063 19.1249 5.17188 19.1249 5.17188C19.5881 6.21955 19.6328 7.40477 19.2499 8.48437C20.0921 9.39832 20.5509 10.6011 20.5311 11.8437C20.5311 16.6406 17.6093 17.7031 14.828 18.0156C15.1162 18.32 15.3364 18.6822 15.4738 19.0783C15.6112 19.4743 15.6627 19.895 15.6249 20.3125C15.6249 21.9844 15.6249 23.3281 15.6249 23.75C15.6249 24.1719 15.8593 24.4687 16.4843 24.3437C19.2917 23.3963 21.6714 21.4823 23.1987 18.9433C24.7261 16.4042 25.3018 13.4051 24.8232 10.481C24.3446 7.55682 22.8428 4.89777 20.5857 2.9781C18.3286 1.05843 15.4629 0.00297602 12.4999 3.09663e-07V3.09663e-07Z" fill="#F4F73E"/>
</g>
<defs>
<clipPath id="clip0_46:11">
<rect width="25" height="25" fill="white"/>
</clipPath>
</defs>
</svg>
