<svg width="25" height="25" viewBox="0 0 25 25" fill="none" xmlns="http://www.w3.org/2000/svg">
<g clip-path="url(#clip0_46:3)">
<path d="M12.5 0C9.10937 0 8.6875 0 7.34375 0.078125C6.30787 0.097649 5.28285 0.293143 4.3125 0.65625C3.47748 0.969535 2.71918 1.4579 2.08854 2.08854C1.4579 2.71918 0.969535 3.47748 0.65625 4.3125C0.293143 5.28285 0.097649 6.30787 0.078125 7.34375C0 8.67187 0 9.10937 0 12.5C0 15.8906 0 16.3281 0.078125 17.6563C0.097649 18.6921 0.293143 19.7171 0.65625 20.6875C0.969535 21.5225 1.4579 22.2808 2.08854 22.9115C2.71918 23.5421 3.47748 24.0305 4.3125 24.3437C5.27816 24.7336 6.30333 24.9555 7.34375 25C8.67187 25 9.10937 25 12.5 25C15.8906 25 16.3125 25 17.6563 24.9219C18.6921 24.9024 19.7171 24.7069 20.6875 24.3437C21.5211 24.0283 22.2776 23.5381 22.9062 22.9062C23.5404 22.2795 24.0309 21.5225 24.3437 20.6875C24.7336 19.7218 24.9555 18.6967 25 17.6563C25 16.3125 25.0781 15.8906 25.0781 12.5C25.0781 9.10937 25 8.6875 25 7.34375C24.9805 6.30787 24.785 5.28285 24.4219 4.3125C24.1002 3.46965 23.5998 2.70644 22.9552 2.0753C22.3106 1.44416 21.537 0.960059 20.6875 0.65625C19.7171 0.293143 18.6921 0.097649 17.6563 0.078125C16.3125 0 15.8906 0 12.5 0ZM11.375 2.25H12.5C15.8438 2.25 16.2344 2.25 17.5469 2.32813C18.3417 2.33091 19.1298 2.47372 19.875 2.75C20.4138 2.95968 20.9032 3.27908 21.3121 3.68793C21.7209 4.09678 22.0403 4.58616 22.25 5.125C22.5263 5.87024 22.6691 6.65833 22.6719 7.45312C22.6719 8.76562 22.75 9.15625 22.75 12.5C22.75 15.8438 22.75 16.2344 22.6719 17.5469C22.6672 18.3415 22.5244 19.1293 22.25 19.875C22.0441 20.4112 21.7242 20.8963 21.3125 21.2969C20.9105 21.7141 20.4189 22.0347 19.875 22.2344C19.1291 22.5102 18.342 22.6582 17.5469 22.6719C16.2344 22.6719 15.8438 22.6719 12.5 22.6719C9.15625 22.6719 8.76562 22.6719 7.45312 22.6719C6.65817 22.6564 5.87135 22.5085 5.125 22.2344C4.58296 22.0309 4.09223 21.7109 3.6875 21.2969C3.2719 20.8935 2.9516 20.4024 2.75 19.8594C2.4733 19.1197 2.33045 18.3366 2.32813 17.5469C2.32813 16.2344 2.25 15.8281 2.25 12.5C2.25 9.17187 2.25 8.76562 2.32813 7.45312C2.33091 6.65833 2.47372 5.87024 2.75 5.125C2.95968 4.58616 3.27908 4.09678 3.68793 3.68793C4.09678 3.27908 4.58616 2.95968 5.125 2.75C5.87075 2.47558 6.65851 2.33284 7.45312 2.32813C8.60937 2.32813 9.01563 2.25 11.375 2.25V2.25ZM19.1875 4.32812C18.8629 4.42279 18.5778 4.62016 18.375 4.89063C18.1722 5.16109 18.0625 5.49005 18.0625 5.82813C18.0625 6.1662 18.1722 6.49516 18.375 6.76562C18.5778 7.03609 18.8629 7.23346 19.1875 7.32813C19.4204 7.39604 19.6659 7.40881 19.9045 7.36542C20.1432 7.32203 20.3684 7.22367 20.5625 7.07813C20.7566 6.93258 20.9141 6.74386 21.0225 6.5269C21.131 6.30993 21.1875 6.0707 21.1875 5.82813C21.1875 5.58555 21.131 5.34632 21.0225 5.12935C20.9141 4.91239 20.7566 4.72367 20.5625 4.57813C20.3684 4.43258 20.1432 4.33422 19.9045 4.29083C19.6659 4.24744 19.4204 4.26021 19.1875 4.32812V4.32812ZM12.5 6.07813C10.7968 6.05119 9.15268 6.70194 7.9293 7.88723C6.70592 9.07252 6.0035 10.6953 5.97656 12.3984C5.94963 14.1016 6.60038 15.7458 7.78567 16.9691C8.97096 18.1925 10.5937 18.8949 12.2969 18.9219H12.5C14.2032 18.9219 15.8366 18.2453 17.041 17.041C18.2453 15.8366 18.9219 14.2032 18.9219 12.5C18.9219 10.7968 18.2453 9.16338 17.041 7.95905C15.8366 6.75471 14.2032 6.07813 12.5 6.07813V6.07813ZM12.5 8.32812C13.6065 8.32812 14.6676 8.76766 15.45 9.55004C16.2323 10.3324 16.6719 11.3935 16.6719 12.5C16.6719 13.6065 16.2323 14.6676 15.45 15.45C14.6676 16.2323 13.6065 16.6719 12.5 16.6719C11.3935 16.6719 10.3324 16.2323 9.55004 15.45C8.76766 14.6676 8.32812 13.6065 8.32812 12.5C8.32812 11.3935 8.76766 10.3324 9.55004 9.55004C10.3324 8.76766 11.3935 8.32812 12.5 8.32812V8.32812Z" fill="#F4F73E"/>
</g>
<defs>
<clipPath id="clip0_46:3">
<rect width="25" height="25" fill="white"/>
</clipPath>
</defs>
</svg>
