<svg width="25" height="25" viewBox="0 0 25 25" fill="none" xmlns="http://www.w3.org/2000/svg">
<g clip-path="url(#clip0_46:5)">
<path d="M0 1.7969C0.00204308 1.55888 0.0509506 1.32359 0.14393 1.10447C0.236909 0.885345 0.372139 0.686684 0.541898 0.519827C0.711657 0.35297 0.91262 0.221185 1.13331 0.131997C1.354 0.0428095 1.5901 -0.00203435 1.82812 2.64181e-05H23.1562C23.3956 -0.00410914 23.6334 0.0392014 23.8559 0.127458C24.0784 0.215714 24.2812 0.347168 24.4526 0.514231C24.624 0.681294 24.7606 0.880656 24.8546 1.10081C24.9486 1.32096 24.998 1.55755 25 1.7969V23.2032C24.998 23.4425 24.9486 23.6791 24.8546 23.8992C24.7606 24.1194 24.624 24.3188 24.4526 24.4858C24.2812 24.6529 24.0784 24.7843 23.8559 24.8726C23.6334 24.9609 23.3956 25.0042 23.1562 25H1.82812C1.5901 25.0021 1.354 24.9572 1.13331 24.8681C0.91262 24.7789 0.711657 24.6471 0.541898 24.4802C0.372139 24.3134 0.236909 24.1147 0.14393 23.8956C0.0509506 23.6765 0.00204308 23.4412 0 23.2032L0 1.7969ZM7.71875 20.9219V9.64065H3.96875V20.9219H7.71875ZM5.84375 8.09378C6.11431 8.11768 6.38689 8.08489 6.64406 7.9975C6.90123 7.9101 7.13735 7.77003 7.33733 7.58623C7.53731 7.40242 7.69675 7.17893 7.80547 6.93002C7.91419 6.68111 7.9698 6.41227 7.96875 6.14065C7.96962 5.87252 7.91483 5.60712 7.80784 5.36125C7.70085 5.11539 7.54399 4.8944 7.34719 4.71229C7.15039 4.53017 6.91793 4.39089 6.66452 4.30325C6.41111 4.21561 6.14226 4.18153 5.875 4.20315C5.60575 4.17936 5.33449 4.21172 5.07839 4.29818C4.82229 4.38463 4.58692 4.52331 4.38718 4.70542C4.18744 4.88754 4.02768 5.10913 3.918 5.35618C3.80832 5.60323 3.75111 5.87035 3.75 6.14065C3.74713 6.40868 3.7999 6.67438 3.90499 6.92097C4.01007 7.16755 4.16517 7.38965 4.36049 7.57322C4.55581 7.75678 4.78709 7.89783 5.03971 7.98743C5.29233 8.07704 5.56079 8.11325 5.82813 8.09378H5.84375ZM13.5156 20.9219V14.6719C13.5046 14.3597 13.5469 14.048 13.6406 13.75C13.7748 13.3313 14.0402 12.967 14.3976 12.7109C14.755 12.4548 15.1854 12.3206 15.625 12.3282C16.9844 12.3282 17.5313 13.375 17.5313 14.8907V20.9219H21.2812V14.4532C21.2187 10.9375 19.375 9.37503 16.9062 9.37503C16.2252 9.34598 15.5492 9.5039 14.9515 9.83166C14.3538 10.1594 13.8573 10.6445 13.5156 11.2344V11.2344V9.6719H9.76562C9.76562 10.7344 9.76562 20.9532 9.76562 20.9532L13.5156 20.9219Z" fill="#F4F73E"/>
</g>
<defs>
<clipPath id="clip0_46:5">
<rect width="25" height="25" fill="white"/>
</clipPath>
</defs>
</svg>
