<svg id="Layer_1" data-name="Layer 1" xmlns="http://www.w3.org/2000/svg" viewBox="0 0 16 16"><path d="M5,15a9.28,9.28,0,0,0,9.34-9.33c0-.14,0-.29,0-.43A6.63,6.63,0,0,0,16,3.54a6.56,6.56,0,0,1-1.89.52,3.32,3.32,0,0,0,1.45-1.82,6.56,6.56,0,0,1-2.09.8A3.28,3.28,0,0,0,7.88,6,9.33,9.33,0,0,1,1.11,2.6,3.28,3.28,0,0,0,2.13,7,3.15,3.15,0,0,1,.64,6.57v0A3.29,3.29,0,0,0,3.27,9.84a3.12,3.12,0,0,1-.86.11,4.32,4.32,0,0,1-.62,0,3.29,3.29,0,0,0,3.07,2.27A6.56,6.56,0,0,1,.78,13.58,5.11,5.11,0,0,1,0,13.53,9.34,9.34,0,0,0,5,15Z" style="fill:#1d1d1f"/></svg>