<svg width="25" height="25" viewBox="0 0 25 25" fill="none" xmlns="http://www.w3.org/2000/svg">
<g clip-path="url(#clip0_46:7)">
<path d="M7.8125 23.4373C9.73113 23.4498 11.6332 23.0813 13.4083 22.3533C15.1835 21.6253 16.7966 20.5522 18.154 19.1962C19.5115 17.8402 20.5863 16.2283 21.3162 14.4539C22.0461 12.6795 22.4166 10.7779 22.4063 8.85921C22.4063 8.64046 22.4063 8.40608 22.4063 8.18733C23.4237 7.46533 24.3024 6.56546 25 5.53108C24.0619 5.94829 23.0664 6.22218 22.0469 6.34358C23.1204 5.70004 23.9251 4.69004 24.3125 3.49983C23.3036 4.10047 22.199 4.52329 21.0469 4.74983C20.2774 3.93256 19.2609 3.39051 18.1535 3.20694C17.0462 3.02337 15.9091 3.20845 14.9171 3.73373C13.9251 4.25901 13.133 5.09545 12.6625 6.11456C12.1919 7.13367 12.069 8.27907 12.3125 9.37483C10.2758 9.27832 8.28205 8.75564 6.45997 7.84056C4.63788 6.92548 3.02802 5.63835 1.73438 4.06233C1.06864 5.19428 0.862817 6.53858 1.15938 7.81786C1.45594 9.09714 2.23225 10.2138 3.32813 10.9373C2.50822 10.9109 1.70792 10.6799 1 10.2655V10.2655C0.982968 11.4623 1.38414 12.6276 2.13433 13.5604C2.88452 14.4931 3.93669 15.1348 5.10937 15.3748C4.67164 15.4944 4.21936 15.5522 3.76563 15.5467C3.44313 15.5699 3.11937 15.5699 2.79687 15.5467C3.12823 16.5634 3.76837 17.4514 4.62817 18.0872C5.48796 18.7229 6.52461 19.0747 7.59375 19.0936C5.76791 20.4982 3.52216 21.2467 1.21875 21.2186C0.811101 21.2237 0.40366 21.1976 0 21.1405C2.33349 22.6318 5.04315 23.4285 7.8125 23.4373V23.4373Z" fill="#F4F73E"/>
</g>
<defs>
<clipPath id="clip0_46:7">
<rect width="25" height="25" fill="white"/>
</clipPath>
</defs>
</svg>
